<?xml version="1.0" encoding="UTF-8"?>
<svg version="1.1" xmlns="http://www.w3.org/2000/svg" width="2141" height="655">
<path d="M0 0 C3.93882047 0.76418106 7.87577753 1.5375896 11.8125 2.3125 C13.46282227 2.63250977 13.46282227 2.63250977 15.14648438 2.95898438 C18.43793223 3.60950652 21.71895695 4.29904538 25 5 C26.01674805 5.19803223 27.03349609 5.39606445 28.08105469 5.60009766 C33.65960758 6.84637011 37.08157142 8.08645911 40.42016602 12.83251953 C40.81776123 13.46528809 41.21535645 14.09805664 41.625 14.75 C42.07609131 15.41757324 42.52718262 16.08514648 42.99194336 16.77294922 C44.36320372 18.82802943 45.684457 20.90893166 47 23 C47.39429199 23.60424805 47.78858398 24.20849609 48.19482422 24.83105469 C63.34786425 48.05494632 73.58416719 74.63868172 78 102 C78.11569336 102.71220703 78.23138672 103.42441406 78.35058594 104.15820312 C84.81416451 146.16187394 76.26916642 189.83653329 56 227 C55.68063477 227.5971582 55.36126953 228.19431641 55.03222656 228.80957031 C38.40235476 259.79009292 13.65313401 284.42857844 -16 303 C-16.59941406 303.37866211 -17.19882812 303.75732422 -17.81640625 304.14746094 C-37.94284135 316.67757955 -61.08740017 324.55411801 -84.25 329.1875 C-85.01022461 329.3426709 -85.77044922 329.4978418 -86.55371094 329.65771484 C-104.2930203 332.9680418 -122.2474201 333.28871776 -140.23168945 333.22705078 C-142.57958471 333.22648504 -144.92748031 333.22680639 -147.27537537 333.22793579 C-153.57974773 333.22850397 -159.88404224 333.21683741 -166.18839669 333.20278788 C-172.1303766 333.19147072 -178.07235394 333.18953376 -184.01434316 333.18748413 C-195.76584284 333.18313143 -207.51731438 333.169889 -219.26879883 333.15087891 C-230.66886252 333.13245674 -242.06891852 333.11833146 -253.46899414 333.10986328 C-254.52707577 333.10907511 -254.52707577 333.10907511 -255.60653279 333.10827102 C-259.14605838 333.10566051 -262.68558402 333.1031332 -266.2251097 333.10064721 C-295.48342456 333.07999042 -324.74171197 333.04468091 -354 333 C-354 332.34 -354 331.68 -354 331 C-352.31933594 329.71899414 -352.31933594 329.71899414 -349.984375 328.28515625 C-349.14519531 327.76373047 -348.30601562 327.24230469 -347.44140625 326.70507812 C-346.10916016 325.89200195 -346.10916016 325.89200195 -344.75 325.0625 C-343.01471266 323.99236342 -341.2803067 322.92079603 -339.546875 321.84765625 C-338.38430176 321.1362146 -338.38430176 321.1362146 -337.19824219 320.41040039 C-334.96012147 319.02099817 -334.96012147 319.02099817 -332.84082031 317.32202148 C-331 316 -331 316 -329 316 C-332.95065291 311.74782955 -337.24485448 308.58970755 -342.0625 305.375 C-352.23439729 298.51337375 -352.23439729 298.51337375 -354 297 C-354 296.34 -354 295.68 -354 295 C-352.77215444 294.99761165 -351.54430887 294.99522329 -350.27925587 294.99276257 C-321.04753796 294.93524166 -291.8158924 294.86239798 -262.58426251 294.77101372 C-258.9761786 294.7597473 -255.36809431 294.74860857 -251.76000977 294.73754883 C-250.68267938 294.7342433 -250.68267938 294.7342433 -249.58358475 294.730871 C-237.99683432 294.69562345 -226.41008394 294.67068883 -214.82329998 294.64965298 C-202.90943537 294.62779045 -190.99563953 294.59464233 -179.08183354 294.55129844 C-172.40045792 294.52730708 -165.71916787 294.50867329 -159.03774452 294.50238609 C-152.7332116 294.49628821 -146.42887173 294.47612068 -140.12441063 294.44572449 C-137.82567568 294.43701902 -135.52691542 294.43320588 -133.22816467 294.43499184 C-112.15970576 294.44617999 -92.17748831 292.22789843 -72 286 C-71.33758301 285.79568359 -70.67516602 285.59136719 -69.99267578 285.38085938 C-46.17091686 277.77238884 -24.97331079 264.21520981 -7 247 C-5.88431641 245.96166016 -5.88431641 245.96166016 -4.74609375 244.90234375 C22.09378478 219.18273841 40.39132436 178.26800194 41.203125 141.0703125 C41.22927989 138.42133902 41.24767522 135.77394728 41.25 133.125 C41.25067474 132.43403229 41.25134949 131.74306458 41.25204468 131.03115845 C41.23509822 120.09087178 40.5848966 109.6578855 38 99 C37.83902832 98.29230469 37.67805664 97.58460938 37.51220703 96.85546875 C32.38953756 74.69168076 22.42177366 54.45839237 8.7265625 36.3671875 C5.25686988 31.61009762 3.58667466 28.0750051 2.83203125 22.16796875 C2.66123047 20.87568359 2.49042969 19.58339844 2.31445312 18.25195312 C2.14688608 16.89716623 1.97957151 15.54234809 1.8125 14.1875 C1.6345149 12.81301449 1.45548888 11.43866335 1.27539062 10.06445312 C0.84000603 6.71081503 0.41527893 3.35617706 0 0 Z " fill="#FC9F00" transform="translate(783,304)"/>
<path d="M0 0 C0.33 0 0.66 0 1 0 C1.14841673 7.43526601 0.69670763 14.72483517 0 22.125 C-0.14308594 23.7028125 -0.14308594 23.7028125 -0.2890625 25.3125 C-0.52205282 27.87539348 -0.75909676 30.43784031 -1 33 C-0.29915283 32.78794922 0.40169434 32.57589844 1.1237793 32.35742188 C4.30959907 31.39785349 7.49846737 30.44883337 10.6875 29.5 C11.79029297 29.16613281 12.89308594 28.83226562 14.02929688 28.48828125 C15.09599609 28.17246094 16.16269531 27.85664063 17.26171875 27.53125 C18.24100342 27.23798828 19.22028809 26.94472656 20.22924805 26.64257812 C22.92840328 26.01660433 25.24154205 25.87671696 28 26 C27.5875 26.64324219 27.175 27.28648437 26.75 27.94921875 C25.51460674 29.8822783 24.2846503 31.81881764 23.05859375 33.7578125 C21.73284957 35.8457967 20.39274467 37.92476656 19.03515625 39.9921875 C-2.63704049 73.72356698 -10.29569826 115.79401889 -2 155 C6.63296073 192.04593856 26.28708819 226.86127511 57 250 C58.03382812 250.79921875 59.06765625 251.5984375 60.1328125 252.421875 C91.93844368 276.47072146 130.44093217 285.68280902 169.72705078 285.22607422 C171.80765967 285.21376646 173.88827825 285.20301628 175.96890259 285.19367981 C180.40319593 285.17174337 184.83732112 285.141441 189.27151871 285.10503769 C196.3018385 285.04986022 203.33200992 285.02923796 210.36251831 285.01565552 C212.78315168 285.01058933 215.20378499 285.00549843 217.62441826 285.00038338 C218.83540176 284.9978475 220.04638526 284.99531163 221.29406524 284.99269891 C237.62625724 284.95589877 253.95785722 284.89137659 270.28955078 284.75683594 C281.35763819 284.66593129 292.42487271 284.62179953 303.49334323 284.62982762 C309.33016986 284.63212932 315.16473437 284.6110979 321.00107193 284.53200912 C326.49004805 284.45782437 331.97585855 284.4454613 337.46520615 284.47807884 C339.46338065 284.47931796 341.46172385 284.45880791 343.4593811 284.41332817 C358.4030779 284.09151691 367.30034513 287.93246908 378.90451789 297.31062531 C382.19931856 299.96688891 385.60335472 302.47616756 389 305 C387.86963093 306.15276214 386.73459144 307.3011246 385.5838623 308.43356323 C384.49915344 309.50633821 383.4318344 310.59690354 382.38000488 311.70193481 C368.68231604 325.37989371 353.78208543 325.58638287 335.52728271 325.66523743 C330.06954576 325.65639115 324.61408543 325.57592679 319.15718079 325.48537827 C313.39370847 325.404389 307.63016459 325.40288778 301.86621094 325.3918457 C292.19261161 325.36254194 282.52058087 325.28273301 272.84765625 325.16601562 C259.26978043 325.00224117 245.69254786 324.92926702 232.11385345 324.87498283 C221.49247456 324.82950354 210.87121361 324.76160221 200.25 324.6875 C199.12563034 324.67968884 198.00126068 324.67187767 196.84281921 324.6638298 C190.34016763 324.61668516 183.83779265 324.55752039 177.33540344 324.48232269 C175.38014265 324.4607993 173.42484746 324.4421431 171.4695282 324.42682648 C154.19747362 324.28637652 136.83609094 323.42234769 119.875 319.9375 C118.84987305 319.72762451 117.82474609 319.51774902 116.76855469 319.30151367 C84.7676977 312.36573676 55.32995354 298.6995832 30 278 C29.15356934 277.31599121 29.15356934 277.31599121 28.29003906 276.61816406 C-10.1525874 245.37950998 -34.19153467 199.64663303 -42 151 C-42.1045752 150.35361572 -42.20915039 149.70723145 -42.31689453 149.04125977 C-45.08528044 128.61512795 -44.60646813 105.07310911 -40 85 C-39.80132324 84.10249023 -39.60264648 83.20498047 -39.39794922 82.28027344 C-33.11665778 54.51084867 -21.67964437 27.48389555 -4 5 C-3.2678125 4.05382812 -2.535625 3.10765625 -1.78125 2.1328125 C-1.1934375 1.42898438 -0.605625 0.72515625 0 0 Z " fill="#019ED5" transform="translate(53,313)"/>
<path d="M0 0 C-4.39862422 4.76139735 -9.44245269 8.40489994 -14.6875 12.1875 C-16.40082131 13.42949872 -18.11311133 14.67292171 -19.82421875 15.91796875 C-20.57791748 16.46219482 -21.33161621 17.0064209 -22.1081543 17.56713867 C-24.09610017 19.0049298 -24.09610017 19.0049298 -26 21 C-25.3387915 21.41362793 -24.67758301 21.82725586 -23.99633789 22.25341797 C-21.01519784 24.12223933 -18.03881639 25.99850688 -15.0625 27.875 C-14.02158203 28.52597656 -12.98066406 29.17695312 -11.90820312 29.84765625 C-10.91884766 30.47285156 -9.92949219 31.09804688 -8.91015625 31.7421875 C-7.99371338 32.3182373 -7.07727051 32.89428711 -6.13305664 33.48779297 C-4 35 -4 35 -3 37 C-3.89380371 37.06469482 -4.78760742 37.12938965 -5.70849609 37.19604492 C-53.56617986 40.76408547 -100.44547624 51.18544627 -140 80 C-140.61149902 80.43924805 -141.22299805 80.87849609 -141.85302734 81.33105469 C-150.14268888 87.30219835 -157.96718545 93.53048896 -165.39453125 100.546875 C-167.60731071 102.63027155 -169.86248316 104.60747601 -172.1875 106.5625 C-216.89504426 145.56661269 -234.43183643 205.39346052 -241 262 C-241.66306152 262.09498779 -242.32612305 262.18997559 -243.00927734 262.2878418 C-281.08326527 267.82892572 -321.02483664 280.70139464 -346.84936523 311.18286133 C-353.12140285 318.25409789 -359.39807375 320.35037869 -368.4375 322.5625 C-369.72924843 322.90414222 -371.02027416 323.24852918 -372.31054688 323.59570312 C-381.43913481 326 -381.43913481 326 -384 326 C-384.12669344 322.72708619 -384.10187738 319.47083865 -384.02441406 316.19677734 C-384.00676385 314.6086111 -384.02348124 313.01993756 -384.06152344 311.43212891 C-384.27045957 300.96882757 -384.14452118 292.0954298 -376.69555664 284.14257812 C-373.27189267 280.90426302 -369.69087019 277.9261771 -366 275 C-365.0409375 274.15695312 -364.081875 273.31390625 -363.09375 272.4453125 C-360.47225533 270.17173224 -357.78049029 268.07614858 -355 266 C-354.39639648 265.54705566 -353.79279297 265.09411133 -353.17089844 264.62744141 C-330.85559476 248.00861422 -303.13356248 232.23759251 -275 229 C-274.9575415 228.34225586 -274.91508301 227.68451172 -274.87133789 227.00683594 C-274.33013964 219.9018101 -273.12814502 213.1663753 -271.4375 206.25 C-271.17428955 205.17016846 -270.9110791 204.09033691 -270.63989258 202.9777832 C-263.06065804 172.86936727 -250.19589231 143.2555008 -232 118 C-231.56606934 117.39768555 -231.13213867 116.79537109 -230.68505859 116.17480469 C-215.65611362 95.43846963 -198.53123031 75.47828254 -178 60 C-176.83903229 59.08827192 -175.67893968 58.17542887 -174.51953125 57.26171875 C-124.64749681 18.4212864 -63.01827999 -1.43023331 0 0 Z " fill="#84C744" transform="translate(443,12)"/>
<path d="M0 0 C0.65051331 0.11009399 1.30102661 0.22018799 1.97125244 0.33361816 C46.34959165 7.9255916 89.91068612 26.32158974 124.875 54.9375 C125.80183594 55.67355469 126.72867188 56.40960938 127.68359375 57.16796875 C143.44416413 69.79878047 158.49326888 83.95009993 170.875 99.9375 C171.66132812 100.91847656 172.44765625 101.89945312 173.2578125 102.91015625 C199.01420389 135.27596509 225.875 183.41721646 225.875 225.9375 C226.85855469 226.1334375 227.84210938 226.329375 228.85546875 226.53125 C262.39255366 233.59406487 292.32971416 250.79328223 317.48046875 273.765625 C320.32970904 276.34992777 323.24635041 278.84855828 326.18359375 281.33203125 C328.00209365 283.05813623 329.42659688 284.89556166 330.875 286.9375 C330.545 287.5975 330.215 288.2575 329.875 288.9375 C319.315 286.6275 308.755 284.3175 297.875 281.9375 C298.3390625 286.1140625 298.3390625 286.1140625 298.8125 290.375 C299.5 296.5625 300.1875 302.75 300.875 308.9375 C297.05555881 307.15583647 294.54443412 304.87350222 291.5 301.9375 C280.52990714 291.65600604 268.1661278 283.87831233 254.875 276.9375 C254.26575684 276.61652344 253.65651367 276.29554688 253.02880859 275.96484375 C234.75801521 266.47970746 214.58721949 262.05767402 194.2890625 259.46484375 C193.09410156 259.20380859 193.09410156 259.20380859 191.875 258.9375 C190.66333001 256.51416002 190.55539516 254.59973814 190.296875 251.8984375 C185.57660148 205.40338405 171.18160722 162.81054035 141.875 125.9375 C141.12476563 124.98359375 140.37453125 124.0296875 139.6015625 123.046875 C135.00856763 117.30955035 130.17377879 112.0247976 124.875 106.9375 C119.875 101.9375 119.875 101.9375 118.16796875 100.08984375 C85.69459447 65.87793318 38.24040284 46.66696826 -7.1875 38.015625 C-8.1671875 37.82814697 -9.146875 37.64066895 -10.15625 37.44750977 C-12.14706077 37.10550288 -14.14887011 36.82262798 -16.15625 36.59741211 C-24.27098598 35.61509509 -29.54719231 32.74850497 -36.125 28 C-37.03894531 27.36642578 -37.95289063 26.73285156 -38.89453125 26.08007812 C-41.32300755 24.38938928 -43.73208868 22.67806573 -46.125 20.9375 C-46.87910156 20.41599365 -47.63320313 19.8944873 -48.41015625 19.35717773 C-48.97605469 18.88868408 -49.54195313 18.42019043 -50.125 17.9375 C-50.125 17.2775 -50.125 16.6175 -50.125 15.9375 C-48.69140625 14.70410156 -48.69140625 14.70410156 -46.6875 13.328125 C-45.59115234 12.56628906 -45.59115234 12.56628906 -44.47265625 11.7890625 C-43.69792969 11.26054687 -42.92320312 10.73203125 -42.125 10.1875 C-40.62415993 9.1522585 -39.12415697 8.11580234 -37.625 7.078125 C-36.86960937 6.56572266 -36.11421875 6.05332031 -35.3359375 5.52539062 C-33.11147119 3.98335192 -33.11147119 3.98335192 -31.1640625 2.20898438 C-22.25547492 -5.52694219 -10.74819883 -1.8329829 0 0 Z " fill="#84C743" transform="translate(479.125,15.0625)"/>
<path d="M0 0 C10.23 0 20.46 0 31 0 C37.82476677 8.00865488 37.82476677 8.00865488 39.0625 11.921875 C41.0454701 17.43248934 43.95208081 22.03965803 47.125 26.9375 C48.22226936 28.69442149 49.3159109 30.45361298 50.40625 32.21484375 C51.26476563 33.59518799 51.26476563 33.59518799 52.140625 35.00341797 C55.2908716 40.0803779 58.42236878 45.16887355 61.55316162 50.25784302 C62.60426599 51.96629911 63.65588757 53.67443697 64.70751953 55.38256836 C65.6760083 56.95663452 65.6760083 56.95663452 66.6640625 58.5625 C67.23592285 59.49191406 67.8077832 60.42132813 68.39697266 61.37890625 C69.94553502 63.91094486 71.47694447 66.45255287 73 69 C83.13084849 53.49832747 92.96242828 37.81167461 102.671875 22.04296875 C103.25404785 21.0984082 103.8362207 20.15384766 104.43603516 19.18066406 C105.52663623 17.40934379 106.61501445 15.63665209 107.70068359 13.86230469 C108.19391113 13.06083008 108.68713867 12.25935547 109.1953125 11.43359375 C109.82977295 10.39803345 109.82977295 10.39803345 110.47705078 9.34155273 C112.54773705 6.1578477 114.79254034 3.09044352 117 0 C126.24 0 135.48 0 145 0 C145 48.18 145 96.36 145 146 C134.77 146 124.54 146 114 146 C114 116.63 114 87.26 114 57 C108.72 65.25 103.44 73.5 98 82 C88.08309699 97.34964119 88.08309699 97.34964119 86.34619141 99.95678711 C85.4604513 101.30113948 84.60220132 102.66408121 83.77490234 104.04516602 C81.71140585 107.31747369 80.28808932 108.87939657 76.6875 110.38671875 C72.36369093 110.73940233 68.94838929 110.9548738 65 109 C60.0195342 104.30485153 56.93461071 97.89908314 53.67089844 91.96533203 C50.84416109 86.94874058 47.6855283 82.14791638 44.5625 77.3125 C42.95963117 74.78424248 41.35953375 72.25425132 39.76000977 69.72387695 C37.21662464 65.78761009 34.59958604 61.89937907 32 58 C32 87.04 32 116.08 32 146 C21.44 146 10.88 146 0 146 C0 97.82 0 49.64 0 0 Z " fill="#E10000" transform="translate(1598,384)"/>
<path d="M0 0 C15.40784386 12.51209359 25.93157087 29.92022285 28.38818359 49.78369141 C29.66504728 72.07764233 27.56367685 94.29982988 12.30761719 111.80883789 C10.07974567 114.22179058 7.7523949 116.50354094 5.38818359 118.78369141 C4.75525391 119.44755859 4.12232422 120.11142578 3.47021484 120.79541016 C-5.08044315 129.19506315 -17.99906148 134.5246185 -29.61181641 136.78369141 C-30.49998047 136.96416016 -31.38814453 137.14462891 -32.30322266 137.33056641 C-52.63539921 140.1151384 -74.60767277 137.04518134 -91.35986328 124.47167969 C-95.02266653 121.47027528 -98.32673204 118.18988487 -101.61181641 114.78369141 C-102.27568359 114.15076172 -102.93955078 113.51783203 -103.62353516 112.86572266 C-117.50121492 98.73855652 -120.8684094 78.18020364 -120.8605957 59.26635742 C-120.77009351 51.39527127 -119.92425368 44.34826354 -117.61181641 36.78369141 C-117.28310547 35.70087891 -116.95439453 34.61806641 -116.61572266 33.50244141 C-109.99708916 14.26489075 -96.23616155 1.52825263 -78.63916016 -7.79052734 C-54.07687426 -19.041203 -21.67368482 -16.35539197 0 0 Z M-77.36181641 30.53369141 C-87.0935466 42.3653077 -88.9172528 55.9865699 -87.61181641 70.78369141 C-86.07203262 79.16501451 -82.97509315 86.173745 -77.61181641 92.78369141 C-77.11037109 93.40888672 -76.60892578 94.03408203 -76.09228516 94.67822266 C-69.67266167 101.84758319 -60.26984269 106.38762957 -50.70556641 107.05712891 C-38.21720824 107.45113933 -29.07039905 105.86451587 -19.23681641 97.53369141 C-9.34584164 87.9121823 -4.3173369 76.62951328 -3.57666016 62.79150391 C-3.74174631 48.6674665 -8.46042701 37.0641752 -18.33837891 27.02978516 C-27.39210212 18.78221538 -37.74252027 16.28057628 -49.82275391 16.47119141 C-60.58079321 17.35845238 -70.04502133 22.71228977 -77.36181641 30.53369141 Z " fill="#E10000" transform="translate(2085.61181640625,394.21630859375)"/>
<path d="M0 0 C5.04424284 4.3084767 5.04424284 4.3084767 7.03515625 6.69140625 C7.03515625 10.69140625 7.03515625 10.69140625 5.09375 12.98828125 C3.79630859 14.20257813 3.79630859 14.20257813 2.47265625 15.44140625 C-1.46822238 19.19834005 -5.03003013 23.01548743 -8.39453125 27.29296875 C-9.96484375 28.69140625 -9.96484375 28.69140625 -13.96484375 28.69140625 C-16.375 27.1171875 -16.375 27.1171875 -19.02734375 25.00390625 C-31.57463986 15.51774673 -43.58484491 13.27940965 -58.96484375 14.69140625 C-69.73595331 17.06771289 -78.94978586 23.04702279 -85.33984375 32.06640625 C-92.70346748 44.10269773 -94.95884432 57.24092132 -92.31640625 71.08984375 C-88.73980666 82.73671933 -82.36747796 92.20263442 -71.96484375 98.69140625 C-60.65928659 104.28145362 -49.20125022 106.73407307 -36.71484375 103.97265625 C-28.48027824 101.13630591 -22.64485663 97.46931083 -18.0078125 90.046875 C-16.55117772 86.75717174 -15.83743059 83.1817536 -14.96484375 79.69140625 C-27.17484375 79.69140625 -39.38484375 79.69140625 -51.96484375 79.69140625 C-51.96484375 70.78140625 -51.96484375 61.87140625 -51.96484375 52.69140625 C-29.19484375 52.69140625 -6.42484375 52.69140625 17.03515625 52.69140625 C18.89285109 74.98374429 17.59183288 95.81905353 2.84765625 113.87890625 C-10.22199784 127.92734501 -28.26246481 134.83915873 -47.14379883 135.66748047 C-68.75341627 136.18554279 -88.83028769 130.01357286 -104.72265625 114.93359375 C-120.89367759 98.76257241 -127.26270474 80.01470485 -127.27954102 57.43164062 C-126.99771516 37.08681566 -119.87280365 20.09812887 -105.7265625 5.359375 C-77.70194636 -21.56443789 -30.60174856 -23.828239 0 0 Z " fill="#E10000" transform="translate(1940.96484375,397.30859375)"/>
<path d="M0 0 C10.23 0 20.46 0 31 0 C31 51.48 31 102.96 31 156 C21.43 156 11.86 156 2 156 C1.01 150.555 1.01 150.555 0 145 C-0.928125 145.886875 -1.85625 146.77375 -2.8125 147.6875 C-12.58478464 155.98805503 -24.51608844 158.42287823 -37.0625 157.875 C-46.79005536 156.95265186 -55.11386634 153.73384132 -63 148 C-63.59425781 147.57074219 -64.18851563 147.14148438 -64.80078125 146.69921875 C-75.32589283 138.41448569 -81.75235447 125.27096972 -83.71875 112.16796875 C-85.38512977 93.39805222 -83.42453084 75.72655625 -71.859375 60.109375 C-63.78708061 50.68228994 -53.42418041 43.92409874 -41 42 C-27.92187294 41.21470831 -16.27518872 42.90527341 -5 50 C-3.68 51.32 -2.36 52.64 -1 54 C-0.67 36.18 -0.34 18.36 0 0 Z M-46 76 C-53.01877956 86.51844803 -54.1178569 96.6549716 -53 109 C-51.33926732 116.93571664 -46.70575821 123.60358456 -40.1328125 128.34765625 C-33.97083216 132.03691057 -28.06247948 132.74669387 -21 132 C-14.03220843 129.94868216 -8.07191699 126.50183154 -4.3359375 120.1875 C0.71340086 110.42385048 2.92648144 100.87561582 0.24609375 89.91796875 C-2.8495025 81.04392618 -6.95468143 74.97401446 -15 70 C-25.18404771 65.09102275 -38.50310325 67.39874452 -46 76 Z " fill="#00A0D8" transform="translate(1412,375)"/>
<path d="M0 0 C9.57 0 19.14 0 29 0 C33.49971571 8.99943143 33.49971571 8.99943143 34.94433594 12.75561523 C35.27341446 13.6053038 35.60249298 14.45499237 35.94154358 15.33042908 C36.28567795 16.23072342 36.62981232 17.13101776 36.984375 18.05859375 C37.35682846 19.0231398 37.72928192 19.98768585 38.11302185 20.98146057 C39.32886265 24.13213137 40.53935194 27.28483071 41.75 30.4375 C42.60279964 32.64927053 43.45607724 34.86085682 44.30981445 37.07226562 C45.61323813 40.44852151 46.91642862 43.82486452 48.21821594 47.20175171 C51.86094218 56.6502541 55.53204938 66.08745285 59.21807861 75.51913452 C60.18566411 77.99530173 61.15228184 80.47184473 62.11865234 82.94848633 C65.18673105 90.80962605 68.2609142 98.66832143 71.34547424 106.52301025 C72.83237058 110.31042506 74.31689453 114.09876759 75.80117798 117.88720703 C76.50894473 119.69171355 77.21788131 121.49576173 77.92807007 123.29931641 C78.91067092 125.79477336 79.88932483 128.29174579 80.8671875 130.7890625 C81.15599289 131.51944733 81.44479828 132.24983215 81.74235535 133.00234985 C82.01155289 133.6920285 82.28075043 134.38170715 82.55810547 135.09228516 C82.78964325 135.68143707 83.02118103 136.27058899 83.25973511 136.87759399 C84.30536397 139.87550596 85.12775216 142.94713256 86 146 C75.11 146 64.22 146 53 146 C50.28463236 139.8904228 47.67584738 133.84058319 45.25 127.625 C44.93417969 126.83222656 44.61835937 126.03945313 44.29296875 125.22265625 C43.99519531 124.46082031 43.69742187 123.69898438 43.390625 122.9140625 C43.12282227 122.2329541 42.85501953 121.5518457 42.57910156 120.85009766 C42 119 42 119 42 116 C23.52 116 5.04 116 -14 116 C-14.33 117.65 -14.66 119.3 -15 121 C-15.64161165 122.91330493 -16.32164765 124.81398081 -17.03125 126.703125 C-17.42957031 127.7653125 -17.82789063 128.8275 -18.23828125 129.921875 C-18.65464844 131.02015625 -19.07101562 132.1184375 -19.5 133.25 C-19.91636719 134.36375 -20.33273437 135.4775 -20.76171875 136.625 C-23.86787549 144.86787549 -23.86787549 144.86787549 -25 146 C-27.3756852 146.0883967 -29.72208674 146.11530305 -32.09765625 146.09765625 C-33.16094398 146.09553383 -33.16094398 146.09553383 -34.24571228 146.09336853 C-36.51801712 146.08775443 -38.79022475 146.07519963 -41.0625 146.0625 C-42.59960796 146.05748681 -44.13671745 146.05292359 -45.67382812 146.04882812 C-49.44925642 146.03778042 -53.22461171 146.02050641 -57 146 C-55.01443126 138.95721473 -52.61616131 132.18454377 -49.88671875 125.3984375 C-49.28346016 123.8829834 -49.28346016 123.8829834 -48.66801453 122.33691406 C-47.34486462 119.01479232 -46.01610556 115.69494316 -44.6875 112.375 C-42.78581643 107.60494022 -40.88712595 102.83369045 -38.98828125 98.0625 C-38.49354189 96.82050115 -37.99879084 95.57850696 -37.50402832 94.33651733 C-34.01238135 85.567615 -30.55010082 76.78746934 -27.10546875 68 C-26.86421705 67.38472065 -26.62296535 66.7694413 -26.374403 66.13551712 C-24.25907803 60.74031988 -22.14514489 55.34458018 -20.03475952 49.94744873 C-13.49979583 33.23681535 -6.79768983 16.60562879 0 0 Z M14 41 C10.50267866 49.43227674 7.46284784 58.01603844 4.4375 66.625 C3.71130407 68.68696 2.9844901 70.74869891 2.2568512 72.81015015 C1.59898084 74.67460255 0.94286552 76.53967395 0.28686523 78.40478516 C-1.10183427 82.28450227 -2.55310336 86.14160897 -4 90 C7.88 90 19.76 90 32 90 C31.05125 87.298125 30.1025 84.59625 29.125 81.8125 C24.3628581 68.22697534 19.68442361 54.61246726 15 41 C14.67 41 14.34 41 14 41 Z " fill="#E10000" transform="translate(1503,384)"/>
<path d="M0 0 C3.79768742 3.35187194 7.26627265 6.60443313 10.1953125 10.75390625 C6.01330659 15.60674588 1.75267461 20.38730252 -2.5546875 25.12890625 C-3.02624268 25.65258789 -3.49779785 26.17626953 -3.98364258 26.71582031 C-6.1567117 29.09715967 -8.10516712 30.954226 -10.8046875 32.75390625 C-11.67867187 31.99207031 -11.67867187 31.99207031 -12.5703125 31.21484375 C-24.93442853 20.83365199 -35.80914352 16.66330098 -51.8046875 17.75390625 C-61.69074842 19.61049903 -70.47100239 24.50998616 -76.90625 32.296875 C-85.55694855 45.05205393 -87.79588479 58.76077182 -85.296875 73.8125 C-82.17061166 85.32936666 -75.78403848 93.97736894 -65.69140625 100.17578125 C-54.45225578 106.32005295 -41.42249599 107.63846761 -29.1171875 104.12890625 C-22.29683392 101.80040781 -15.75604242 98.75346842 -10.65234375 93.56640625 C-8.8046875 91.75390625 -8.8046875 91.75390625 -6.8046875 91.75390625 C-4.360726 94.9507538 -2.27091559 98.37926017 -0.13525391 101.78808594 C0.93885315 103.49364952 2.03683491 105.18207447 3.13671875 106.87109375 C3.81089844 107.94101562 4.48507812 109.0109375 5.1796875 110.11328125 C5.80584961 111.09780273 6.43201172 112.08232422 7.07714844 113.09667969 C8.1953125 115.75390625 8.1953125 115.75390625 7.48388672 118.00170898 C-0.16122518 128.39749681 -16.15521638 133.83071337 -28.3359375 136.2578125 C-51.01293506 139.50103175 -73.39618147 136.97873378 -92.18652344 123.02050781 C-105.32973542 112.73279149 -113.16584718 99.64240386 -117.8046875 83.75390625 C-118.05089844 82.91085937 -118.29710937 82.0678125 -118.55078125 81.19921875 C-123.3978452 60.27327369 -119.52613654 37.59449111 -108.7421875 19.25390625 C-98.13856407 3.33697043 -81.70143471 -8.07810325 -63.0546875 -12.55859375 C-41.45515559 -16.51850793 -17.63252777 -14.12075692 0 0 Z " fill="#00A0D8" transform="translate(1026.8046875,395.24609375)"/>
<path d="M0 0 C12.58173126 10.41246725 18.74714851 24.89077702 20.3125 40.875 C21.51892204 57.63656574 16.29543945 73.09547266 5.57421875 85.9609375 C-5.22867506 97.63611466 -20.02325674 103.07389471 -35.66821289 103.8515625 C-53.95599472 104.34303978 -69.47892884 98.55705229 -82.875 86.1875 C-94.10300413 74.34705928 -98.34442946 59.41958919 -98.08789062 43.43823242 C-97.51042009 28.52184776 -92.52987589 14.95255823 -82.10546875 4.00390625 C-58.86554689 -16.45773739 -25.22475619 -17.92400353 0 0 Z M-59.5625 23.5 C-65.49496507 31.00323597 -67.41412658 39.21221925 -67.06640625 48.66796875 C-65.80383231 59.35429043 -60.98920499 66.58851512 -52.75 73.25 C-44.85076012 77.4414334 -37.03067309 77.74527839 -28.48828125 75.2265625 C-21.97285521 72.43606569 -16.79163228 66.93815199 -13.5546875 60.6875 C-10.0101171 51.60238753 -9.50814868 42.12263244 -12.6875 32.875 C-16.35024146 24.91094701 -21.113545 19.57780704 -29.015625 15.74609375 C-40.33353153 12.05619147 -51.42838457 15.14232537 -59.5625 23.5 Z " fill="#00A0D8" transform="translate(1182.6875,429.125)"/>
<path d="M0 0 C10.23 0 20.46 0 31 0 C31.05607422 7.31478516 31.05607422 7.31478516 31.11328125 14.77734375 C31.14358473 17.8808936 31.17474802 20.98438774 31.20898438 24.08789062 C31.26315289 29.00558544 31.31426837 33.92317008 31.34643555 38.84106445 C31.37259222 42.80942715 31.41308013 46.77741635 31.46318626 50.74554634 C31.47977191 52.25362029 31.49133759 53.76175872 31.49761391 55.26991081 C31.53575218 69.06334055 31.53575218 69.06334055 37.1875 81.375 C41.51237806 85.41155285 45.57506875 86.68565706 51.375 87.4375 C57.58150336 86.68843925 63.76877057 84.90713251 68 80.0625 C71.39652748 74.8615673 72.25349528 71.04236586 72.31884766 64.82299805 C72.32889328 64.12001083 72.3389389 63.41702362 72.34928894 62.69273376 C72.38003808 60.38240331 72.39713272 58.07218829 72.4140625 55.76171875 C72.43278084 54.15459709 72.45235475 52.54748519 72.4727478 50.94038391 C72.52400481 46.72038535 72.56366484 42.50035495 72.60089111 38.2802124 C72.64097117 33.96993169 72.69204523 29.6597827 72.7421875 25.34960938 C72.83887068 16.89982306 72.92228304 8.44998207 73 0 C83.23 0 93.46 0 104 0 C104 36.96 104 73.92 104 112 C94.43 112 84.86 112 75 112 C74.34 107.71 73.68 103.42 73 99 C72.0925 100.03125 71.185 101.0625 70.25 102.125 C61.93805088 110.38667523 51.07258576 113.93600442 39.55078125 114.02734375 C28.67933979 113.56898027 18.86524488 110.86524488 11 103 C-0.46500193 88.58817027 -0.15916484 72.02645134 -0.09765625 54.4921875 C-0.09578744 52.91464279 -0.09436573 51.3370975 -0.09336853 49.759552 C-0.08957978 45.63983513 -0.07978129 41.52015441 -0.06866455 37.40045166 C-0.05655659 32.44014228 -0.05203082 27.47982071 -0.04621124 22.51950073 C-0.03656703 15.01297546 -0.01738517 7.50652928 0 0 Z " fill="#00A0D8" transform="translate(1213,419)"/>
<path d="M0 0 C9.9 0 19.8 0 30 0 C30 51.48 30 102.96 30 156 C20.1 156 10.2 156 0 156 C0 104.52 0 53.04 0 0 Z " fill="#00A0D8" transform="translate(1046,375)"/>
<path d="M0 0 C9.9 0 19.8 0 30 0 C30 36.63 30 73.26 30 111 C20.1 111 10.2 111 0 111 C0 74.37 0 37.74 0 0 Z " fill="#00A0D8" transform="translate(1768,419)"/>
<path d="M0 0 C6.04936956 4.21554958 9.24917324 9.9138136 11 17 C12.17619085 25.4879752 10.57185424 33.05435567 5.52734375 40.0390625 C0.56622464 45.55141706 -5.45737135 48.37851202 -12.76953125 49.37890625 C-21.7715366 49.76920299 -28.88200682 46.75722578 -35.49609375 40.7109375 C-40.59420689 34.91100618 -42.34330691 27.98679218 -42.20703125 20.4296875 C-41.51811475 12.34466742 -38.07342179 6.32629451 -32 1 C-21.66823601 -5.66938496 -10.8880764 -5.55110703 0 0 Z " fill="#009AD0" transform="translate(332,421)"/>
<path d="M0 0 C5.54774552 4.09451199 9.2895277 9.29980674 11 16 C11.9695567 24.05631652 11.43539432 31.0778764 7 38 C2.7882798 43.14765803 -3.3278672 47.78346451 -10 49 C-19.32779782 49.89605617 -25.51001464 47.93575966 -33.25 42.875 C-38.71069464 37.16609196 -41.71965394 30.42002381 -42.12890625 22.5078125 C-41.72134527 14.57889892 -38.71509552 7.54265729 -33 2 C-22.59715712 -5.26031743 -11.22775029 -6.37811697 0 0 Z " fill="#83C643" transform="translate(571,421)"/>
<path d="M0 0 C2.875 2.4375 2.875 2.4375 5 5 C5.721875 5.804375 6.44375 6.60875 7.1875 7.4375 C11.78075174 13.93140763 11.85690301 21.33297308 11 29 C8.80514743 36.37062119 4.42400908 41.83307519 -2 46 C-8.57816602 49.27155681 -15.47220959 50.27601366 -22.578125 48.2734375 C-29.84158848 45.59856921 -34.97987599 42.25630221 -38.8125 35.375 C-41.99677905 28.43966085 -43.05384203 21.56783067 -40.8125 14.1875 C-37.46267064 5.78301741 -32.26120161 0.57214301 -24.1875 -3.375 C-15.44846876 -5.08853554 -7.84098797 -4.37504401 0 0 Z " fill="#F69A00" transform="translate(452,219)"/>
<path d="M0 0 C2.57348633 1.26831055 2.57348633 1.26831055 5.33203125 2.88671875 C6.36561768 3.48830811 7.3992041 4.08989746 8.46411133 4.7097168 C10.12156372 5.68871948 10.12156372 5.68871948 11.8125 6.6875 C12.97576406 7.36761348 14.13942599 8.04704688 15.3034668 8.72583008 C18.29445183 10.47188659 21.28077834 12.22575093 24.26611328 13.98144531 C27.95278819 16.1471462 31.64728737 18.29946377 35.34057617 20.45385742 C37.31258919 21.60421185 39.28411117 22.75540846 41.25512695 23.9074707 C51.13011892 29.67496789 61.05841939 35.34823653 71 41 C70.80883789 43.29516602 70.80883789 43.29516602 70 46 C67.88061523 47.72241211 67.88061523 47.72241211 65.05859375 49.27734375 C64.01219727 49.86596191 62.96580078 50.45458008 61.88769531 51.06103516 C60.74913086 51.68026855 59.61056641 52.29950195 58.4375 52.9375 C57.25385146 53.59760065 56.07124606 54.25957498 54.88964844 54.92333984 C52.45519985 56.28951501 50.01689287 57.64838724 47.57568359 59.00244141 C42.25420347 61.96366691 37.00401518 65.0461836 31.75 68.125 C30.77820801 68.68888428 29.80641602 69.25276855 28.80517578 69.83374023 C23.75547245 72.76868596 18.7491834 75.75803827 13.78515625 78.8359375 C12.78194336 79.45065918 11.77873047 80.06538086 10.74511719 80.69873047 C8.83396594 81.8725961 6.93169828 83.06108838 5.04003906 84.26611328 C4.18764648 84.7867334 3.33525391 85.30735352 2.45703125 85.84375 C1.71428955 86.30974609 0.97154785 86.77574219 0.20629883 87.25585938 C-2 88 -2 88 -4.5546875 87.25292969 C-5.36164063 86.83946289 -6.16859375 86.42599609 -7 86 C-7.60690674 85.69545898 -8.21381348 85.39091797 -8.83911133 85.07714844 C-9.4142749 84.7577832 -9.98943848 84.43841797 -10.58203125 84.109375 C-11.25363281 83.73723877 -11.92523438 83.36510254 -12.6171875 82.98168945 C-13.34164062 82.57523193 -14.06609375 82.16877441 -14.8125 81.75 C-15.59238281 81.31453857 -16.37226563 80.87907715 -17.17578125 80.43041992 C-25.70199077 75.64525136 -34.13375506 70.69865897 -42.5703125 65.7578125 C-49.48982306 61.7076296 -56.43025167 57.69418798 -63.375 53.6875 C-64.50486328 53.03499268 -65.63472656 52.38248535 -66.79882812 51.71020508 C-67.84232422 51.10845459 -68.88582031 50.5067041 -69.9609375 49.88671875 C-71.34998291 49.08560669 -71.34998291 49.08560669 -72.76708984 48.26831055 C-74.1590113 47.4776882 -75.56820979 46.71589511 -77 46 C-77.24365234 43.67529297 -77.24365234 43.67529297 -77 41 C-75.39306641 39.47705078 -75.39306641 39.47705078 -73.1015625 38.1953125 C-72.24320801 37.70232666 -71.38485352 37.20934082 -70.50048828 36.70141602 C-69.07712158 35.92109009 -69.07712158 35.92109009 -67.625 35.125 C-66.14942627 34.28569946 -66.14942627 34.28569946 -64.64404297 33.42944336 C-62.52857365 32.22702719 -60.40876517 31.03221987 -58.28515625 29.84423828 C-53.95671615 27.41431583 -49.66221134 24.92775962 -45.36743164 22.43896484 C-43.20254555 21.18609876 -41.03504797 19.93773457 -38.86499023 18.69384766 C-33.27098311 15.4871451 -27.70991294 12.23754812 -22.19140625 8.90234375 C-21.09876465 8.24741943 -20.00612305 7.59249512 -18.88037109 6.91772461 C-16.79664068 5.66617985 -14.71975204 4.40315207 -12.65087891 3.12719727 C-11.71808105 2.56959717 -10.7852832 2.01199707 -9.82421875 1.4375 C-9.01041748 0.94121094 -8.19661621 0.44492187 -7.3581543 -0.06640625 C-4.37201285 -1.24862024 -3.03208543 -0.99734266 0 0 Z M-9.09375 8.31640625 C-9.94654541 8.82598877 -10.79934082 9.33557129 -11.67797852 9.8605957 C-12.60924561 10.42222412 -13.5405127 10.98385254 -14.5 11.5625 C-23.14211973 16.72731712 -31.83064989 21.80094111 -40.5625 26.8125 C-44.7107246 29.20421169 -48.8559603 31.60104627 -53 34 C-53.7955127 34.45874512 -54.59102539 34.91749023 -55.41064453 35.39013672 C-57.32287483 36.4980964 -59.22585444 37.61981014 -61.125 38.75 C-62.09695313 39.32234375 -63.06890625 39.8946875 -64.0703125 40.484375 C-64.70710938 40.98453125 -65.34390625 41.4846875 -66 42 C-66 42.99 -66 43.98 -66 45 C-65.05253906 45.5261792 -65.05253906 45.5261792 -64.0859375 46.06298828 C-50.14985639 53.81167027 -36.29704884 61.67777446 -22.54296875 69.74609375 C-21.64239746 70.26929199 -20.74182617 70.79249023 -19.81396484 71.33154297 C-17.80536126 72.52248491 -15.81808371 73.74969981 -13.84619141 75.00048828 C-12.79995605 75.65130371 -11.7537207 76.30211914 -10.67578125 76.97265625 C-9.73259033 77.574729 -8.78939941 78.17680176 -7.81762695 78.79711914 C-4.35055743 80.27725531 -2.59165623 80.00570052 1 79 C3.55196186 77.67793398 5.94108302 76.32305523 8.375 74.8125 C9.88487768 73.90014909 11.39532846 72.98874616 12.90625 72.078125 C13.7209375 71.58376953 14.535625 71.08941406 15.375 70.58007812 C20.17789618 67.6890491 25.02930849 64.88099111 29.875 62.0625 C30.8861084 61.47299561 31.8972168 60.88349121 32.93896484 60.27612305 C42.28060708 54.82994413 51.63737413 49.41000787 61 44 C58.60030318 41.34434213 56.03555811 39.72001447 52.93359375 37.953125 C51.90290771 37.36257324 50.87222168 36.77202148 49.81030273 36.16357422 C48.69727783 35.53209473 47.58425293 34.90061523 46.4375 34.25 C45.27844349 33.58789878 44.11967495 32.92529321 42.96118164 32.26220703 C40.54029983 30.87701423 38.11817282 29.49403356 35.6953125 28.11230469 C32.06075796 26.03736808 28.4352989 23.94694257 24.8125 21.8515625 C24.23226578 21.5160437 23.65203156 21.1805249 23.05421448 20.83483887 C20.27546905 19.22776173 17.49702257 17.62016785 14.71850586 16.01269531 C11.8154199 14.3363533 8.90890912 12.66621324 6 11 C4.67766357 10.23864746 4.67766357 10.23864746 3.32861328 9.46191406 C2.52020996 9.00268555 1.71180664 8.54345703 0.87890625 8.0703125 C0.17451416 7.66828613 -0.52987793 7.26625977 -1.25561523 6.85205078 C-4.57324167 5.23154466 -6.12379344 6.52756573 -9.09375 8.31640625 Z " fill="#D68600" transform="translate(440,280)"/>
<path d="M0 0 C0.80179687 0.46148437 1.60359375 0.92296875 2.4296875 1.3984375 C8.33165949 4.78437608 14.24422904 8.14466945 20.20385742 11.42822266 C31.2896124 17.53891319 42.21831802 23.90893537 53.13378906 30.31787109 C55.84514988 31.90912118 58.55889297 33.49622019 61.2734375 35.08203125 C62.82822022 35.99202483 64.38291396 36.90217045 65.9375 37.8125 C66.64720947 38.22693359 67.35691895 38.64136719 68.08813477 39.06835938 C72.88500091 41.88500091 72.88500091 41.88500091 74 43 C74.09516211 45.7388842 74.12554594 48.45247941 74.11352539 51.19165039 C74.11367142 52.05011063 74.11381744 52.90857086 74.1139679 53.79304504 C74.11326847 56.64460738 74.1054747 59.49610525 74.09765625 62.34765625 C74.09579218 64.31920842 74.09436822 66.29076105 74.09336853 68.26231384 C74.08954251 73.46226267 74.07971152 78.66218375 74.06866455 83.86212158 C74.05845222 89.16393661 74.05387129 94.4657561 74.04882812 99.76757812 C74.03808933 110.17839763 74.02101191 120.58919651 74 131 C70.6205323 130.22179133 68.01676083 129.04033492 64.984375 127.33203125 C63.99300537 126.77580078 63.00163574 126.21957031 61.98022461 125.64648438 C60.91425049 125.04126953 59.84827637 124.43605469 58.75 123.8125 C57.63826416 123.18537109 56.52652832 122.55824219 55.38110352 121.91210938 C49.85620193 118.78602926 44.3480725 115.631774 38.85546875 112.44921875 C37.46933128 111.64744957 37.46933128 111.64744957 36.05519104 110.82948303 C34.08748365 109.67481849 32.13137814 108.49993082 30.19264221 107.29725647 C25.10971768 104.1810554 20.32017846 101.64674904 14.64355469 99.79199219 C7.51563599 97.17343331 1.50939557 94.30727116 -3 88 C-7.54913119 75.54692835 -5.47712681 60.25107064 -4.82281494 47.28894043 C-4.6416072 43.2193268 -4.5631214 39.15069695 -4.48988628 35.07791519 C-4.3385929 26.68230735 -4.12190361 18.28705549 -3.72143555 9.89941406 C-3.6945163 9.12443573 -3.66759705 8.3494574 -3.63986206 7.55099487 C-3.52226257 5.41119385 -3.52226257 5.41119385 -3 2 C-2.01 1.34 -1.02 0.68 0 0 Z M3 10 C2.44062574 19.4041891 2.01603245 28.80257243 1.75650787 38.21983528 C1.63183171 42.595123 1.46344713 46.95895449 1.18945312 51.32763672 C-0.68571673 69.97512595 -0.68571673 69.97512595 5.21356201 86.88226318 C10.84191412 91.64377554 17.19998789 94.38815358 24.07775879 96.89459229 C27.890162 98.33672509 31.07950867 100.21819288 34.5390625 102.3671875 C36.5672767 103.53720689 38.59590387 104.70651076 40.625 105.875 C41.70257568 106.49576416 42.78015137 107.11652832 43.89038086 107.75610352 C45.98546283 108.96261171 48.08074564 110.16877124 50.17626953 111.37451172 C52.69036749 112.82175919 55.2028511 114.27175921 57.71484375 115.72265625 C58.99729508 116.4611125 60.27983668 117.19941203 61.5625 117.9375 C62.61566406 118.54464844 63.66882813 119.15179688 64.75390625 119.77734375 C66.72016594 121.0796838 66.72016594 121.0796838 68 121 C68.20875481 111.45555526 68.36855302 101.91189879 68.46630955 92.36566734 C68.5132351 87.93257259 68.57684821 83.50104203 68.67895508 79.06884766 C68.7769251 74.78932022 68.83059252 70.51129439 68.85389519 66.23073196 C68.87049454 64.59987365 68.90291344 62.96909545 68.95157051 61.33887863 C69.52358191 52.48580913 69.52358191 52.48580913 66.11460876 44.73394775 C63.7994922 43.16091944 61.58826829 42.05132594 59 41 C57.63766235 40.18208984 57.63766235 40.18208984 56.24780273 39.34765625 C55.48411377 38.92355469 54.7204248 38.49945313 53.93359375 38.0625 C53.04736328 37.5667749 52.16113281 37.0710498 51.24804688 36.56030273 C50.32056641 36.04540283 49.39308594 35.53050293 48.4375 35 C37.92968134 29.11648285 27.51581898 23.08337521 17.125 16.99609375 C16.24199219 16.48030762 15.35898437 15.96452148 14.44921875 15.43310547 C12.90723708 14.53084945 11.36779003 13.62423376 9.83203125 12.71142578 C6.63319716 10.67014708 6.63319716 10.67014708 3 10 Z " fill="#0089B9" transform="translate(355,339)"/>
<path d="M0 0 C2.13696289 0.94432068 2.13696289 0.94432068 4 2 C4.02328345 11.44114904 4.04099603 20.88228802 4.05181217 30.32345963 C4.05700624 34.70848869 4.06403993 39.09349795 4.07543945 43.47851562 C4.0863929 47.71901389 4.09230294 51.95949324 4.09487724 56.20000458 C4.09670923 57.80891975 4.10028606 59.41783402 4.10573006 61.02674103 C4.18865189 86.57502726 4.18865189 86.57502726 1.5922699 89.68760681 C-0.21072924 91.04663769 -2.00707437 91.94135141 -4.0625 92.875 C-5.62878211 93.68914407 -7.19381751 94.50568964 -8.7578125 95.32421875 C-9.60504883 95.75009277 -10.45228516 96.1759668 -11.32519531 96.61474609 C-16.14168195 99.10915511 -20.77177156 101.92449481 -25.4375 104.6875 C-27.4754192 105.87826093 -29.51450827 107.06702168 -31.5546875 108.25390625 C-32.59850586 108.86121582 -33.64232422 109.46852539 -34.71777344 110.09423828 C-43.59258675 115.24722792 -52.47970135 120.37937182 -61.37939453 125.48925781 C-62.99960834 126.42328828 -64.61600922 127.36401159 -66.22607422 128.31542969 C-70.79172601 131 -70.79172601 131 -73 131 C-73.30166174 119.66513792 -73.53241434 108.33123504 -73.67355824 96.99317169 C-73.74131599 91.72772641 -73.83314234 86.46503297 -73.98071289 81.20117188 C-74.12233375 76.11751986 -74.19976252 71.03650725 -74.23340416 65.95103455 C-74.25736372 64.01462735 -74.30416043 62.07835956 -74.37449074 60.14308167 C-74.8891057 45.39103217 -74.8891057 45.39103217 -71.76048851 41.43115616 C-68.25929611 38.39952241 -64.26623683 36.75170878 -60 35 C-57.94591006 33.83830729 -55.90528674 32.65206172 -53.88671875 31.4296875 C-51.82130416 30.24306393 -49.75487032 29.05821295 -47.6875 27.875 C-45.42030172 26.57208638 -43.15338137 25.26868903 -40.88671875 23.96484375 C-39.7476709 23.30983887 -38.60862305 22.65483398 -37.43505859 21.97998047 C-31.94662578 18.81642751 -26.47199085 15.62938709 -21 12.4375 C-19.560802 11.59904541 -19.560802 11.59904541 -18.0925293 10.74365234 C-17.17511963 10.20820801 -16.25770996 9.67276367 -15.3125 9.12109375 C-14.43078125 8.61046387 -13.5490625 8.09983398 -12.640625 7.57373047 C-10.81527436 6.48587819 -9.01408261 5.35682119 -7.234375 4.19580078 C-6.35265625 3.62716309 -5.4709375 3.05852539 -4.5625 2.47265625 C-3.78003906 1.9506665 -2.99757813 1.42867676 -2.19140625 0.89086914 C-1.46824219 0.59688232 -0.74507812 0.30289551 0 0 Z M-8.01953125 11.9375 C-9.09154785 12.57768066 -10.16356445 13.21786133 -11.26806641 13.87744141 C-11.84502258 14.22301086 -12.42197876 14.56858032 -13.01641846 14.92462158 C-24.79403617 21.97630359 -36.65941577 28.85783239 -48.62036133 35.59375 C-49.71759521 36.21507812 -50.8148291 36.83640625 -51.9453125 37.4765625 C-53.37641357 38.282146 -53.37641357 38.282146 -54.83642578 39.10400391 C-56.40239502 40.04252197 -56.40239502 40.04252197 -58 41 C-58.77498337 41.31850922 -59.54996674 41.63701843 -60.34843445 41.96517944 C-63.22660465 43.36841274 -64.95421012 44.5177736 -67 47 C-68.28568535 52.59031427 -68.04918617 58.06834291 -67.87890625 63.7734375 C-67.8621071 65.423925 -67.84930209 67.07445757 -67.84031677 68.7250061 C-67.80605256 73.05647037 -67.71774238 77.3851914 -67.61798096 81.71557617 C-67.52569035 86.13943367 -67.4847619 90.56373729 -67.43945312 94.98828125 C-67.34310749 103.66010916 -67.18963536 112.32971279 -67 121 C-61.20586455 117.84992917 -55.41387338 114.69979578 -49.6796875 111.44140625 C-48.57858643 110.81580811 -47.47748535 110.19020996 -46.34301758 109.5456543 C-43.9700724 108.18870719 -41.59976107 106.82809066 -39.2331543 105.46020508 C-38.62012955 105.10591934 -38.0071048 104.75163361 -37.37550354 104.38661194 C-36.12627996 103.66446646 -34.87728746 102.94192108 -33.62852478 102.21897888 C-29.93184131 100.08676091 -26.20982311 98.01268823 -22.45440674 95.98579407 C-19.55837114 94.41411236 -16.68858812 92.79531752 -13.8125 91.1875 C-12.73790527 90.62683838 -11.66331055 90.06617676 -10.55615234 89.48852539 C-9.57469238 88.9289917 -8.59323242 88.36945801 -7.58203125 87.79296875 C-6.28616089 87.08950317 -6.28616089 87.08950317 -4.96411133 86.37182617 C0.58213267 79.67427982 -1.86991245 66.1950729 -1.90234375 57.92578125 C-1.90421371 56.50660757 -1.90563488 55.08743323 -1.90663147 53.66825867 C-1.9104112 49.9710607 -1.92020147 46.27390334 -1.93133545 42.57672119 C-1.94164846 38.78878325 -1.94615007 35.00083862 -1.95117188 31.21289062 C-1.96182882 23.80857543 -1.97884912 16.40429345 -2 9 C-4.10429959 9 -6.30178244 10.90711357 -8.01953125 11.9375 Z " fill="#74AF3C" transform="translate(518,339)"/>
<path d="M0 0 C0.70382812 -0.02900391 1.40765625 -0.05800781 2.1328125 -0.08789062 C7.30745476 -0.15040954 10.1677374 0.88923122 14.25 4.3125 C17.03006649 7.08794075 18.13305525 8.56847356 18.74609375 12.46875 C18.72675781 13.5721875 18.70742187 14.675625 18.6875 15.8125 C18.68621094 16.9159375 18.68492188 18.019375 18.68359375 19.15625 C18.05084674 23.7621922 16.27313688 26.34466782 12.9375 29.5 C7.32836491 33.28290506 1.86165576 34.01849036 -4.75 33.3125 C-10.94394407 31.99156928 -14.23129144 29.53724907 -17.75 24.3125 C-19.72879197 19.59384223 -19.10604698 14.45976251 -17.625 9.6875 C-13.46466833 2.19890299 -8.27979886 0.11128762 0 0 Z " fill="#00A0D8" transform="translate(1782.75,364.6875)"/>
<path d="M0 0 C0.66 0.33 1.32 0.66 2 1 C-1.63 4.63 -5.26 8.26 -9 12 C-9 8.47601214 -8.44884893 7.98495633 -6.1875 5.4375 C-5.40439453 4.53837891 -5.40439453 4.53837891 -4.60546875 3.62109375 C-3 2 -3 2 0 0 Z " fill="#006588" transform="translate(303,420)"/>
<path d="M0 0 C0.66 0.33 1.32 0.66 2 1 C-0.97 3.97 -3.94 6.94 -7 10 C-7 6.04435836 -5.59478606 4.89133304 -3 2 C-2.01 1.34 -1.02 0.68 0 0 Z " fill="#5C8B2F" transform="translate(541,421)"/>
<path d="M0 0 C0.33 0 0.66 0 1 0 C1 3.3 1 6.6 1 10 C0.67 10 0.34 10 0 10 C-0.33 8.35 -0.66 6.7 -1 5 C-2.98 5.99 -2.98 5.99 -5 7 C-4.19152271 5.83054208 -3.37810888 4.66449539 -2.5625 3.5 C-2.11003906 2.8503125 -1.65757813 2.200625 -1.19140625 1.53125 C-0.79824219 1.0259375 -0.40507813 0.520625 0 0 Z " fill="#118AAB" transform="translate(53,313)"/>
<path d="M0 0 C0.99 0.33 1.98 0.66 3 1 C0.69 3.31 -1.62 5.62 -4 8 C-4.33 7.01 -4.66 6.02 -5 5 C-3.35 3.35 -1.7 1.7 0 0 Z " fill="#B47100" transform="translate(420,220)"/>
</svg>
